<?xml version="1.0" encoding="UTF-8"?>
<!-- Created with Inkscape (http://www.inkscape.org/) -->
<svg width="300" height="300" version="1.1" viewBox="0 0 79.375 79.375" xml:space="preserve" xmlns="http://www.w3.org/2000/svg"><g transform="translate(-.17628 -5.2724)"><g stroke-width=".1"><g transform="matrix(3.7126 0 0 3.7126 -83.52 -109.31)"><g fill="#ff0"><path d="m41.676 41.177s1.3847-0.12562 1.8042 0.49446c0.41952 0.62007 0.37473 1.1995 0.26318 1.7778-0.11155 0.57839-0.91071 1.1547-1.5331 1.2409-0.62236 0.08615-0.76275-0.14124-0.76275-0.14124s0.56932-2.3874 0.22844-3.372z" stroke="#150000"/><path d="m24.791 41.138s-1.3847-0.12562-1.8042 0.49446c-0.41952 0.62007-0.37473 1.1995-0.26318 1.7778 0.11155 0.57839 0.91071 1.1547 1.5331 1.2409 0.62236 0.08615 0.76275-0.14124 0.76275-0.14124s-0.56932-2.3874-0.22844-3.372z" stroke="#150000"/><path d="m29.753 47.739s5.9933 0.48466 8.1251-0.14203c2.1318-0.62669 4.5077-1.8079 4.0813-5.9495-0.4264-4.1416-4.4839-6.2188-6.6551-6.3288-2.1712-0.10996-5.1579-0.71763-8.4662 2.0725-3.3084 2.7901-2.1501 6.7738-2.0134 7.2305s1.4399 2.6854 4.9284 3.1173z" stroke="#000"/></g><path d="m39.1 40.101-10.998-9e-3 -0.0586 2.5878 11.071 0.02323z" fill="#34349e" stroke="#000"/></g><g transform="matrix(2.0489 0 0 2.0489 -40.292 -36.476)" fill="#ff4200" stroke="#000" style="inline-size:57.8284;white-space:pre" aria-label="BOT Error"><path d="m30.876 39.737v0.76137h0.33762q0.24288 0 0.33934-0.08268 0.09819-0.08268 0.09819-0.28767 0-0.20843-0.10163-0.29972-0.10163-0.0913-0.3359-0.0913zm0-1.0025v0.59772h0.33762q0.19293 0 0.27389-0.0689 0.08268-0.0689 0.08268-0.22738 0-0.15847-0.0844-0.2291-0.08268-0.07235-0.27216-0.07235zm-0.49093-0.4048h0.82855q0.42892 0 0.64423 0.16364 0.21704 0.16192 0.21704 0.48576 0 0.24805-0.12747 0.38757-0.12747 0.13953-0.37379 0.16192 0.29456 0.02928 0.4427 0.19809 0.14986 0.16881 0.14986 0.47198 0 0.37207-0.22393 0.53916-0.22393 0.16709-0.72864 0.16709h-0.82855z"/><path d="m33.355 38.743q-0.19465 0-0.28422 0.20843-0.08957 0.20671-0.08957 0.67007 0 0.46164 0.08957 0.67007 0.08957 0.20671 0.28422 0.20671 0.19637 0 0.28594-0.20671 0.08957-0.20843 0.08957-0.67007 0-0.46337-0.08957-0.67007-0.08957-0.20843-0.28594-0.20843zm-0.90262 0.8785q0-0.65974 0.22738-0.99736 0.2291-0.33762 0.67524-0.33762 0.44786 0 0.67524 0.33762 0.2291 0.33762 0.2291 0.99736 0 0.65801-0.2291 0.99563-0.22738 0.33762-0.67524 0.33762-0.44614 0-0.67524-0.33762-0.22738-0.33762-0.22738-0.99563z"/><path d="m35.734 40.905h-0.50815v-2.1273h-0.65285v-0.44442h1.8138v0.44442h-0.65285z"/><path d="m40.557 40.905h-1.602v-2.5718h1.602v0.44786h-1.0938v0.55466h0.99047v0.44786h-0.99047v0.67352h1.0938z"/><path d="m42.772 39.508q-0.08268-0.07579-0.19465-0.11369-0.11024-0.0379-0.24288-0.0379-0.1602 0-0.28078 0.05684-0.11886 0.05512-0.18431 0.16192-0.04134 0.06546-0.05857 0.15847-0.0155 0.09302-0.0155 0.2825v0.88884h-0.50471v-1.9293h0.50471v0.29972q0.07407-0.16536 0.22738-0.25494 0.15331-0.0913 0.35829-0.0913 0.10335 0 0.20154 0.02584 0.09991 0.02412 0.18948 0.07235z"/><path d="m44.896 39.508q-0.08268-0.07579-0.19465-0.11369-0.11024-0.0379-0.24288-0.0379-0.1602 0-0.28078 0.05684-0.11886 0.05512-0.18431 0.16192-0.04134 0.06546-0.05857 0.15847-0.0155 0.09302-0.0155 0.2825v0.88884h-0.50471v-1.9293h0.50471v0.29972q0.07407-0.16536 0.22738-0.25494 0.15331-0.0913 0.35829-0.0913 0.10335 0 0.20154 0.02584 0.09991 0.02412 0.18948 0.07235z"/><path d="m46.098 39.339q-0.18087 0-0.28422 0.1602-0.10335 0.15847-0.10335 0.4427 0 0.28422 0.10335 0.44442 0.10335 0.15848 0.28422 0.15848 0.18259 0 0.28594-0.15848 0.10335-0.1602 0.10335-0.44442 0-0.28422-0.10335-0.4427-0.10335-0.1602-0.28594-0.1602zm-0.89228 0.60289q0-0.46681 0.24116-0.73897 0.24288-0.27388 0.65112-0.27388 0.40997 0 0.65112 0.27388 0.24288 0.27216 0.24288 0.73897 0 0.46681-0.24288 0.7407-0.24116 0.27216-0.65112 0.27216-0.40824 0-0.65112-0.27216-0.24116-0.27389-0.24116-0.7407z"/><path d="m49.144 39.508q-0.08268-0.07579-0.19465-0.11369-0.11024-0.0379-0.24288-0.0379-0.1602 0-0.28078 0.05684-0.11886 0.05512-0.18431 0.16192-0.04134 0.06546-0.05857 0.15847-0.0155 0.09302-0.0155 0.2825v0.88884h-0.50471v-1.9293h0.50471v0.29972q0.07407-0.16536 0.22738-0.25494 0.15331-0.0913 0.35829-0.0913 0.10335 0 0.20154 0.02584 0.09991 0.02412 0.18948 0.07235z"/></g><text transform="matrix(2.0489 0 0 2.0489 -258.92 -85.577)" x="30.169043" y="40.904572" fill="#34349e" font-family="monospace" font-size="35.278px" font-weight="bold" stroke="#000000" style="inline-size:57.8284;white-space:pre" xml:space="preserve"/></g></g></svg>
