<?xml version="1.0" encoding="UTF-8"?>
<!-- Created with Inkscape (http://www.inkscape.org/) -->
<svg width="250" height="250" version="1.1" viewBox="0 0 66.147 66.147" xmlns="http://www.w3.org/2000/svg">
 <circle cx="32.986" cy="32.952" r="32.344" fill="#483737" stroke-width="0"/>
 <g transform="matrix(.76573 0 0 .76573 7.836 8.6888)">
  <g transform="translate(.32735 -2.2379)">
   <g stroke-width="0">
    <g transform="translate(-.57977 -1.919)">
     <path d="m26.491 29.39s-9.7563-10.596-11.685-12.773c-2.692-3.0377-5.9031-12.036-1.8442-12.036 1.103 0 12.254 8.8703 15.62 24.095 0.23034 1.0417-2.0905 0.71396-2.0905 0.71396z" fill="#ff8080"/>
     <path d="m25.874 26.779-9.6749-10.19s-3.6476-7.2137-1.1442-7.4589c2.7315-0.26763 11.665 17.204 11.665 17.204z" fill="#faa"/>
    </g>
    <g transform="matrix(-.99684 -.079446 -.079446 .99684 66.356 .89526)">
     <path d="m26.491 29.39s-9.7563-10.596-11.685-12.773c-2.692-3.0377-5.9031-12.036-1.8442-12.036 1.103 0 12.254 8.8703 15.62 24.095 0.23034 1.0417-2.0905 0.71396-2.0905 0.71396z" fill="#ff8080"/>
     <path d="m25.874 26.779-9.6749-10.19s-3.6476-7.2137-1.1442-7.4589c2.7315-0.26763 11.665 17.204 11.665 17.204z" fill="#faa"/>
    </g>
    <path d="m24.132 52.38c-1.5902 0.47493-7.0776 3.437-8.9661 6.6411-0.99974 1.6962-2.242 4.54-0.77691 5.8553 1.7954 1.6117 5.1409-0.21849 7.0313-1.7177 2.7765-2.2019 4.8091-9.4811 4.8091-9.4811s-1.3097-1.5329-2.0974-1.2976z" fill="#f37b7b"/>
    <path d="m39.727 52.366c1.4202 0.43182 7.6997 4.2638 9.5883 7.4679 0.99974 1.6962 1.1779 3.9923-0.17106 4.9363-1.7386 1.2167-4.1628-0.47288-6.0532-1.972-2.7765-2.2019-5.4614-9.1346-5.4614-9.1346s1.3108-1.5368 2.0974-1.2976z" fill="#f37b7b"/>
    <path class="UnoptimicedTransforms" transform="matrix(.4051 0 0 .4051 19.175 72.198)" d="m32.715-125.17c-3.8319 0.30975-22.454 18.985-29.841 31.783-7.333 12.704-16.14 41.954-14.397 44.973 1.7434 3.0197 29.052 3.1507 43.636 3.1667 0.19493 2.14e-4 0.4027-0.0023 0.60255-0.0031zm0 0c3.8319 0.30975 22.454 18.985 29.841 31.783 7.333 12.704 16.14 41.954 14.397 44.973-1.7434 3.0197-29.052 3.1507-43.636 3.1667-0.19493 2.14e-4 -0.4027-0.0023-0.60255-0.0031z" fill="#faa"/>
   </g>
  </g>
 </g>
</svg>