<?xml version="1.0" encoding="UTF-8"?>
<svg width="22.714" height="23.469" version="1.1" viewBox="0 0 22.714 23.469" xmlns="http://www.w3.org/2000/svg" xmlns:xlink="http://www.w3.org/1999/xlink">
 <defs>
  <radialGradient id="radialGradient3359" cx="12.068" cy="12.704" r="9.9184" gradientTransform="matrix(1 0 0 .96956 0 .38673)" gradientUnits="userSpaceOnUse">
   <stop stop-color="#ff0" offset="0"/>
   <stop stop-color="#ffc800" offset="1"/>
  </radialGradient>
 </defs>
 <g transform="matrix(1.1414 0 0 1.1772 -2.417 -3.2207)">
  <g stroke-width="0">
   <ellipse cx="12.068" cy="12.704" rx="9.9184" ry="9.6164" fill="url(#radialGradient3359)"/>
   <path d="m2.4123 10.143h1.889s1.4663 2.6872 3.1312 2.8767c1.6649 0.18952 2.8893-0.5548 3.4891-1.5189 0.59972-0.96412 1.6438-0.79833 2.5726 0.37071 0.92879 1.169 2.7239 1.77 4.4693 0.5818 1.7454-1.1882 1.7415-2.3753 1.7415-2.3753l1.9107 0.09943 0.02927-2.1091h-19.212z"/>
   <path d="m11.157 18.596c-1.7109-0.307-3.3577-1.3839-4.6151-3.018l-0.31024-0.40319 0.13029-0.18298c0.25348-0.35598 0.26465-0.35581 0.81857 0.01262 0.7248 0.48209 1.1476 0.71319 1.7349 0.94835 1.2238 0.49001 2.6623 0.698 4.0095 0.57972 1.6667-0.14632 2.9575-0.60616 4.2743-1.5228l0.50303-0.35013 0.48278 0.47142-0.19043 0.26516c-1.076 1.4983-2.6361 2.6358-4.2131 3.0719-0.5783 0.15991-2.0471 0.23147-2.6245 0.12785z"/>
  </g>
 </g>
</svg>