<?xml version="1.0" encoding="UTF-8"?>
<!-- Created with Inkscape (http://www.inkscape.org/) -->
<svg width="500" height="300" version="1.1" viewBox="0 0 132.29 79.375" xml:space="preserve" xmlns="http://www.w3.org/2000/svg"><g stroke-width="0"><path d="m8.1382 53.526s2.3578 12.904 17.145 8.9168c14.787-3.9875 15.953-2.743 23.656 1.8975s7.3238 17.267 21.722 8.1609c14.398-9.1063 17.038-13.13 25.882-8.0833 8.8439 5.0466 15.878 11.382 21.033 5.0809 5.155-6.3014 8.8379-4.8474 2.539-13.461-6.299-8.6135-8.3962-6.6504-5.8801-13.234 4.325-11.317 19.783-5.1957 16.479-10.71-6.8267-11.394-14.47-6.3339-15.629-11.202-3.7964-15.946-5.1556-19.629-16.428-15.245-11.273 4.3835-1.9348 9.187-17.989 5.705-16.055-3.482-23.407-7.6945-32.571-2.1616-9.1647 5.5329-4.4659 9.787-18.172 4.8312-13.706-4.9558-27.323-1.9763-27.66 4.3516-0.337 6.3278 6.8622 6.3609 8.377 14.8 1.5147 8.4395-2.5023 20.353-2.5023 20.353z" fill="#dca708"/><g transform="translate(22.268 -1.7191)"><path d="m28.234 35.824 3.2235-1.954s3.0327 4.2591 5.5007 4.7899c2.468 0.5308 15.628 0.49996 16.786 0.793 1.1581 0.29305 2.7851-15.12 3.6797-16.792s3.787-7.955 5.7458-9.1957c1.9589-1.2407 6.4267-2.0476 8.2631-0.13934 1.8364 1.9082 4.7049 3.725 4.43 6.1588-0.27489 2.4337-4.4967 9.8152-4.4967 9.8152s-0.74571-0.47739 0.0217-3.6853c0.7674-3.2079 3.1334-4.6637 2.4646-6.6344-0.66878-1.9707-0.4299-3.7963-2.9739-4.433-2.544-0.63673-5.3141-1.3236-7.4213 0.7272-2.1071 2.0508-4.3637 6.6392-4.7957 8.8088-0.43192 2.1696-1.2223 13.695 0.1551 17.246 1.3774 3.5509-1.6129 14.136-1.6129 14.136l0.24684 14.599-1.023-0.06533-0.70239-14.183-2.2176-0.16727 0.56978 13.929-1.0606 0.1126-0.70226-14.371-13.132 0.0488 1.1245 15.569-1.068 0.11339-1.2677-15.372-3.5661-0.84179 0.81186 16.971-0.9359 0.35418-1.5683-17.26z" fill="#37221d"/><g transform="matrix(.63983 -.067556 .067556 .63983 -31.725 -20.143)"><ellipse transform="matrix(.93753 -.34792 .32822 .9446 0 0)" cx="47.092" cy="107.31" rx="26.091" ry="14.161" fill="#37221d"/><ellipse transform="matrix(.67608 -.73683 .65222 .75803 0 0)" cx="-4.2748" cy="112.24" rx="6.009" ry="7.4589" fill="#fff"/><circle cx="70.223" cy="89.111" r="1.4348"/><ellipse cx="90.687" cy="79.842" rx="5.5202" ry="5.7193" fill="#fff"/><circle cx="90.411" cy="79.882" r="1.4348"/><path d="m56.75 85.02-10.909-7.6615 19.252 0.26369z" fill="#37221d"/><path d="m77.27 71.049-1.3607-13.261 12.416 14.716z" fill="#37221d"/></g></g><path transform="matrix(.48261 .17989 -.17989 .48261 38.992 31.297)" d="m24.59-7.4649-6.3607 0.20953 2.9989-5.6133 1.6809 2.7019z" fill="#d1a3b5"/></g></svg>
