<svg clip-rule="evenodd" stroke="current" fill="current" fill-rule="evenodd" stroke-linejoin="round" stroke-miterlimit="2" viewBox="0 0 24 24" xmlns="http://www.w3.org/2000/svg"><path d="m16.5 11.995c0-1.242 1.008-2.25 2.25-2.25s2.25 1.008 2.25 2.25-1.008 2.25-2.25 2.25-2.25-1.008-2.25-2.25zm-6.75 0c0-1.242 1.008-2.25 2.25-2.25s2.25 1.008 2.25 2.25-1.008 2.25-2.25 2.25-2.25-1.008-2.25-2.25zm-6.75 0c0-1.242 1.008-2.25 2.25-2.25s2.25 1.008 2.25 2.25-1.008 2.25-2.25 2.25-2.25-1.008-2.25-2.25z"/></svg>