<?xml version="1.0" encoding="UTF-8"?>
<!-- Created with Inkscape (http://www.inkscape.org/) -->
<svg width="250" height="250" version="1.1" viewBox="0 0 66.146 66.146" xmlns="http://www.w3.org/2000/svg">
 <g transform="matrix(1.51 0 0 1.51 -16.608 -11.283)" stroke-width="0">
  <g transform="matrix(.20392 0 0 .20392 8.7481 11.464)">
   <path d="m26.491 29.39s-9.7563-10.596-11.685-12.773c-2.692-3.0377-5.9031-12.036-1.8442-12.036 1.103 0 12.254 8.8703 15.62 24.095 0.23034 1.0417-2.0905 0.71396-2.0905 0.71396z" fill="#ffe700"/>
   <path d="m25.874 26.779-9.6749-10.19s-3.6476-7.2137-1.1442-7.4589c2.7315-0.26763 11.665 17.204 11.665 17.204z" fill="#fffaac"/>
  </g>
  <g transform="matrix(-.20328 -.016201 -.016201 .20328 22.312 11.512)">
   <path d="m26.491 29.39s-9.7563-10.596-11.685-12.773c-2.692-3.0377-5.9031-12.036-1.8442-12.036 1.103 0 12.254 8.8703 15.62 24.095 0.23034 1.0417-2.0905 0.71396-2.0905 0.71396z" fill="#ffe700"/>
   <path d="m25.874 26.779-9.6749-10.19s-3.6476-7.2137-1.1442-7.4589c2.7315-0.26763 11.665 17.204 11.665 17.204z" fill="#fffaac"/>
  </g>
  <path d="m15.476 16.225c-0.24191 0.01956-1.4174 1.1986-1.8838 2.0066-0.23003 0.39852-0.48298 1.0547-0.66584 1.6377h5.0815c-0.18285-0.58301-0.41771-1.2392-0.64774-1.6377-0.46635-0.80795-1.6423-1.987-1.8842-2.0066zm39.119 11.086v6.0634l-11.283 3.0661 11.283 3.0489v6.0978h-25.718v-4.4786l20.602 0.10337-11.248-2.7216v-4.048l11.248-2.7561h-20.602v-4.3753zm-41.668 18.276v-25.718h5.0815v21.239h10.869v4.4786z" fill="#ffe700"/>
 </g>
 <g transform="translate(-75.448 -2.7614)">
  <text x="9.050972" y="45.587128" fill="#ffe700" fill-opacity=".90672" font-family="Mercedes-Serial" font-size="17.865px" stroke-width=".766" xml:space="preserve"><tspan x="9.050972" y="45.587128" font-family="monospace" font-size="35.278px" font-weight="bold" stroke-width=".766" style="font-variant-caps:normal;font-variant-east-asian:normal;font-variant-ligatures:normal;font-variant-numeric:normal">L</tspan></text>
  <text transform="rotate(90)" x="25.82955" y="-28.87751" fill="#ffe700" fill-opacity=".90672" font-family="monospace" font-size="35.278px" font-weight="bold" stroke-width=".766" style="font-variant-caps:normal;font-variant-east-asian:normal;font-variant-ligatures:normal;font-variant-numeric:normal" xml:space="preserve"><tspan x="25.82955" y="-28.87751" stroke-width=".766">M</tspan></text>
  <g stroke-width="0">
   <g transform="matrix(.20392 0 0 .20392 8.7481 11.464)">
    <path d="m26.491 29.39s-9.7563-10.596-11.685-12.773c-2.692-3.0377-5.9031-12.036-1.8442-12.036 1.103 0 12.254 8.8703 15.62 24.095 0.23034 1.0417-2.0905 0.71396-2.0905 0.71396z" fill="#ffe700" fill-opacity=".9098"/>
    <path d="m25.874 26.779-9.6749-10.19s-3.6476-7.2137-1.1442-7.4589c2.7315-0.26763 11.665 17.204 11.665 17.204z" fill="#fffaac"/>
   </g>
   <g transform="matrix(-.20328 -.016201 -.016201 .20328 22.312 11.512)">
    <path d="m26.491 29.39s-9.7563-10.596-11.685-12.773c-2.692-3.0377-5.9031-12.036-1.8442-12.036 1.103 0 12.254 8.8703 15.62 24.095 0.23034 1.0417-2.0905 0.71396-2.0905 0.71396z" fill="#ffe700" fill-opacity=".9098"/>
    <path d="m25.874 26.779-9.6749-10.19s-3.6476-7.2137-1.1442-7.4589c2.7315-0.26763 11.665 17.204 11.665 17.204z" fill="#fffaac"/>
   </g>
   <path d="m15.476 16.225c-0.24191 0.01956-1.4174 1.1986-1.8838 2.0066-0.23003 0.39852-0.48298 1.0547-0.66584 1.6377h5.0992c-0.18285-0.58301-0.43541-1.2392-0.66544-1.6377-0.46635-0.80795-1.6423-1.987-1.8842-2.0066z" fill="#ffe700" fill-opacity=".9098"/>
  </g>
 </g>
</svg>
